<svg width="178" height="49" viewBox="0 0 178 49" fill="none" xmlns="http://www.w3.org/2000/svg">
<path d="M0 10C0 4.47715 4.47715 0 10 0H168C173.523 0 178 4.47715 178 10V39C178 44.5228 173.523 49 168 49H10C4.47715 49 0 44.5228 0 39V10Z" fill="black"/>
<path d="M67.528 10.636C68.44 10.636 69.228 10.808 69.892 11.152C70.564 11.488 71.076 11.972 71.428 12.604C71.788 13.236 71.968 13.98 71.968 14.836C71.968 15.692 71.788 16.436 71.428 17.068C71.076 17.692 70.564 18.172 69.892 18.508C69.228 18.836 68.44 19 67.528 19H64.924V10.636H67.528ZM67.528 18.1C68.608 18.1 69.432 17.816 70 17.248C70.568 16.672 70.852 15.868 70.852 14.836C70.852 13.796 70.564 12.984 69.988 12.4C69.42 11.816 68.6 11.524 67.528 11.524H66.016V18.1H67.528ZM76.2764 19.108C75.6604 19.108 75.1004 18.968 74.5964 18.688C74.1004 18.408 73.7084 18.012 73.4204 17.5C73.1404 16.98 73.0004 16.38 73.0004 15.7C73.0004 15.028 73.1444 14.436 73.4324 13.924C73.7284 13.404 74.1284 13.008 74.6324 12.736C75.1364 12.456 75.7004 12.316 76.3244 12.316C76.9484 12.316 77.5124 12.456 78.0164 12.736C78.5204 13.008 78.9164 13.4 79.2044 13.912C79.5004 14.424 79.6484 15.02 79.6484 15.7C79.6484 16.38 79.4964 16.98 79.1924 17.5C78.8964 18.012 78.4924 18.408 77.9804 18.688C77.4684 18.968 76.9004 19.108 76.2764 19.108ZM76.2764 18.148C76.6684 18.148 77.0364 18.056 77.3804 17.872C77.7244 17.688 78.0004 17.412 78.2084 17.044C78.4244 16.676 78.5324 16.228 78.5324 15.7C78.5324 15.172 78.4284 14.724 78.2204 14.356C78.0124 13.988 77.7404 13.716 77.4044 13.54C77.0684 13.356 76.7044 13.264 76.3124 13.264C75.9124 13.264 75.5444 13.356 75.2084 13.54C74.8804 13.716 74.6164 13.988 74.4164 14.356C74.2164 14.724 74.1164 15.172 74.1164 15.7C74.1164 16.236 74.2124 16.688 74.4044 17.056C74.6044 17.424 74.8684 17.7 75.1964 17.884C75.5244 18.06 75.8844 18.148 76.2764 18.148ZM89.8442 12.424L87.7922 19H86.6642L85.0802 13.78L83.4962 19H82.3682L80.3042 12.424H81.4202L82.9322 17.944L84.5642 12.424H85.6802L87.2762 17.956L88.7642 12.424H89.8442ZM94.1319 12.304C94.9319 12.304 95.5799 12.548 96.0759 13.036C96.5719 13.516 96.8199 14.212 96.8199 15.124V19H95.7399V15.28C95.7399 14.624 95.5759 14.124 95.2479 13.78C94.9199 13.428 94.4719 13.252 93.9039 13.252C93.3279 13.252 92.8679 13.432 92.5239 13.792C92.1879 14.152 92.0199 14.676 92.0199 15.364V19H90.9279V12.424H92.0199V13.36C92.2359 13.024 92.5279 12.764 92.8959 12.58C93.2719 12.396 93.6839 12.304 94.1319 12.304ZM99.6957 10.12V19H98.6037V10.12H99.6957ZM104.425 19.108C103.809 19.108 103.249 18.968 102.745 18.688C102.249 18.408 101.857 18.012 101.569 17.5C101.289 16.98 101.149 16.38 101.149 15.7C101.149 15.028 101.293 14.436 101.581 13.924C101.877 13.404 102.277 13.008 102.781 12.736C103.285 12.456 103.849 12.316 104.473 12.316C105.097 12.316 105.661 12.456 106.165 12.736C106.669 13.008 107.065 13.4 107.353 13.912C107.649 14.424 107.797 15.02 107.797 15.7C107.797 16.38 107.645 16.98 107.341 17.5C107.045 18.012 106.641 18.408 106.129 18.688C105.617 18.968 105.049 19.108 104.425 19.108ZM104.425 18.148C104.817 18.148 105.185 18.056 105.529 17.872C105.873 17.688 106.149 17.412 106.357 17.044C106.573 16.676 106.681 16.228 106.681 15.7C106.681 15.172 106.577 14.724 106.369 14.356C106.161 13.988 105.889 13.716 105.553 13.54C105.217 13.356 104.853 13.264 104.461 13.264C104.061 13.264 103.693 13.356 103.357 13.54C103.029 13.716 102.765 13.988 102.565 14.356C102.365 14.724 102.265 15.172 102.265 15.7C102.265 16.236 102.361 16.688 102.553 17.056C102.753 17.424 103.017 17.7 103.345 17.884C103.673 18.06 104.033 18.148 104.425 18.148ZM108.825 15.688C108.825 15.016 108.961 14.428 109.233 13.924C109.505 13.412 109.877 13.016 110.349 12.736C110.829 12.456 111.361 12.316 111.945 12.316C112.521 12.316 113.021 12.44 113.445 12.688C113.869 12.936 114.185 13.248 114.393 13.624V12.424H115.497V19H114.393V17.776C114.177 18.16 113.853 18.48 113.421 18.736C112.997 18.984 112.501 19.108 111.933 19.108C111.349 19.108 110.821 18.964 110.349 18.676C109.877 18.388 109.505 17.984 109.233 17.464C108.961 16.944 108.825 16.352 108.825 15.688ZM114.393 15.7C114.393 15.204 114.293 14.772 114.093 14.404C113.893 14.036 113.621 13.756 113.277 13.564C112.941 13.364 112.569 13.264 112.161 13.264C111.753 13.264 111.381 13.36 111.045 13.552C110.709 13.744 110.441 14.024 110.241 14.392C110.041 14.76 109.941 15.192 109.941 15.688C109.941 16.192 110.041 16.632 110.241 17.008C110.441 17.376 110.709 17.66 111.045 17.86C111.381 18.052 111.753 18.148 112.161 18.148C112.569 18.148 112.941 18.052 113.277 17.86C113.621 17.66 113.893 17.376 114.093 17.008C114.293 16.632 114.393 16.196 114.393 15.7ZM116.934 15.688C116.934 15.016 117.07 14.428 117.342 13.924C117.614 13.412 117.986 13.016 118.458 12.736C118.938 12.456 119.474 12.316 120.066 12.316C120.578 12.316 121.054 12.436 121.494 12.676C121.934 12.908 122.27 13.216 122.502 13.6V10.12H123.606V19H122.502V17.764C122.286 18.156 121.966 18.48 121.542 18.736C121.118 18.984 120.622 19.108 120.054 19.108C119.47 19.108 118.938 18.964 118.458 18.676C117.986 18.388 117.614 17.984 117.342 17.464C117.07 16.944 116.934 16.352 116.934 15.688ZM122.502 15.7C122.502 15.204 122.402 14.772 122.202 14.404C122.002 14.036 121.73 13.756 121.386 13.564C121.05 13.364 120.678 13.264 120.27 13.264C119.862 13.264 119.49 13.36 119.154 13.552C118.818 13.744 118.55 14.024 118.35 14.392C118.15 14.76 118.05 15.192 118.05 15.688C118.05 16.192 118.15 16.632 118.35 17.008C118.55 17.376 118.818 17.66 119.154 17.86C119.49 18.052 119.862 18.148 120.27 18.148C120.678 18.148 121.05 18.052 121.386 17.86C121.73 17.66 122.002 17.376 122.202 17.008C122.402 16.632 122.502 16.196 122.502 15.7ZM132.443 19.084C131.667 19.084 130.959 18.904 130.319 18.544C129.679 18.176 129.171 17.668 128.795 17.02C128.427 16.364 128.243 15.628 128.243 14.812C128.243 13.996 128.427 13.264 128.795 12.616C129.171 11.96 129.679 11.452 130.319 11.092C130.959 10.724 131.667 10.54 132.443 10.54C133.227 10.54 133.939 10.724 134.579 11.092C135.219 11.452 135.723 11.956 136.091 12.604C136.459 13.252 136.643 13.988 136.643 14.812C136.643 15.636 136.459 16.372 136.091 17.02C135.723 17.668 135.219 18.176 134.579 18.544C133.939 18.904 133.227 19.084 132.443 19.084ZM132.443 18.136C133.027 18.136 133.551 18 134.015 17.728C134.487 17.456 134.855 17.068 135.119 16.564C135.391 16.06 135.527 15.476 135.527 14.812C135.527 14.14 135.391 13.556 135.119 13.06C134.855 12.556 134.491 12.168 134.027 11.896C133.563 11.624 133.035 11.488 132.443 11.488C131.851 11.488 131.323 11.624 130.859 11.896C130.395 12.168 130.027 12.556 129.755 13.06C129.491 13.556 129.359 14.14 129.359 14.812C129.359 15.476 129.491 16.06 129.755 16.564C130.027 17.068 130.395 17.456 130.859 17.728C131.331 18 131.859 18.136 132.443 18.136ZM141.288 12.304C142.088 12.304 142.736 12.548 143.232 13.036C143.728 13.516 143.976 14.212 143.976 15.124V19H142.896V15.28C142.896 14.624 142.732 14.124 142.404 13.78C142.076 13.428 141.628 13.252 141.06 13.252C140.484 13.252 140.024 13.432 139.68 13.792C139.344 14.152 139.176 14.676 139.176 15.364V19H138.084V12.424H139.176V13.36C139.392 13.024 139.684 12.764 140.052 12.58C140.428 12.396 140.84 12.304 141.288 12.304ZM154.107 10.636V11.524H151.827V19H150.735V11.524H148.443V10.636H154.107ZM158.715 12.304C159.211 12.304 159.659 12.412 160.059 12.628C160.459 12.836 160.771 13.152 160.995 13.576C161.227 14 161.343 14.516 161.343 15.124V19H160.263V15.28C160.263 14.624 160.099 14.124 159.771 13.78C159.443 13.428 158.995 13.252 158.427 13.252C157.851 13.252 157.391 13.432 157.047 13.792C156.711 14.152 156.543 14.676 156.543 15.364V19H155.451V10.12H156.543V13.36C156.759 13.024 157.055 12.764 157.431 12.58C157.815 12.396 158.243 12.304 158.715 12.304ZM169.127 15.46C169.127 15.668 169.115 15.888 169.091 16.12H163.835C163.875 16.768 164.095 17.276 164.495 17.644C164.903 18.004 165.395 18.184 165.971 18.184C166.443 18.184 166.835 18.076 167.147 17.86C167.467 17.636 167.691 17.34 167.819 16.972H168.995C168.819 17.604 168.467 18.12 167.939 18.52C167.411 18.912 166.755 19.108 165.971 19.108C165.347 19.108 164.787 18.968 164.291 18.688C163.803 18.408 163.419 18.012 163.139 17.5C162.859 16.98 162.719 16.38 162.719 15.7C162.719 15.02 162.855 14.424 163.127 13.912C163.399 13.4 163.779 13.008 164.267 12.736C164.763 12.456 165.331 12.316 165.971 12.316C166.595 12.316 167.147 12.452 167.627 12.724C168.107 12.996 168.475 13.372 168.731 13.852C168.995 14.324 169.127 14.86 169.127 15.46ZM167.999 15.232C167.999 14.816 167.907 14.46 167.723 14.164C167.539 13.86 167.287 13.632 166.967 13.48C166.655 13.32 166.307 13.24 165.923 13.24C165.371 13.24 164.899 13.416 164.507 13.768C164.123 14.12 163.903 14.608 163.847 15.232H167.999Z" fill="white"/>
<path d="M68.916 36.012H64.842L64.142 38H62.476L65.962 28.256H67.81L71.296 38H69.616L68.916 36.012ZM68.468 34.71L66.886 30.188L65.29 34.71H68.468ZM74.4077 31.42C74.6784 31.0653 75.0471 30.7667 75.5137 30.524C75.9804 30.2813 76.5077 30.16 77.0957 30.16C77.7677 30.16 78.3791 30.328 78.9297 30.664C79.4897 30.9907 79.9284 31.4527 80.2457 32.05C80.5631 32.6473 80.7217 33.3333 80.7217 34.108C80.7217 34.8827 80.5631 35.578 80.2457 36.194C79.9284 36.8007 79.4897 37.2767 78.9297 37.622C78.3791 37.958 77.7677 38.126 77.0957 38.126C76.5077 38.126 75.9851 38.0093 75.5277 37.776C75.0704 37.5333 74.6971 37.2347 74.4077 36.88V41.668H72.8117V30.286H74.4077V31.42ZM79.0977 34.108C79.0977 33.576 78.9857 33.1187 78.7617 32.736C78.5471 32.344 78.2577 32.05 77.8937 31.854C77.5391 31.6487 77.1564 31.546 76.7457 31.546C76.3444 31.546 75.9617 31.6487 75.5977 31.854C75.2431 32.0593 74.9537 32.358 74.7297 32.75C74.5151 33.142 74.4077 33.604 74.4077 34.136C74.4077 34.668 74.5151 35.1347 74.7297 35.536C74.9537 35.928 75.2431 36.2267 75.5977 36.432C75.9617 36.6373 76.3444 36.74 76.7457 36.74C77.1564 36.74 77.5391 36.6373 77.8937 36.432C78.2577 36.2173 78.5471 35.9093 78.7617 35.508C78.9857 35.1067 79.0977 34.64 79.0977 34.108ZM83.896 31.42C84.1667 31.0653 84.5353 30.7667 85.002 30.524C85.4687 30.2813 85.996 30.16 86.584 30.16C87.256 30.16 87.8673 30.328 88.418 30.664C88.978 30.9907 89.4167 31.4527 89.734 32.05C90.0513 32.6473 90.21 33.3333 90.21 34.108C90.21 34.8827 90.0513 35.578 89.734 36.194C89.4167 36.8007 88.978 37.2767 88.418 37.622C87.8673 37.958 87.256 38.126 86.584 38.126C85.996 38.126 85.4733 38.0093 85.016 37.776C84.5587 37.5333 84.1853 37.2347 83.896 36.88V41.668H82.3V30.286H83.896V31.42ZM88.586 34.108C88.586 33.576 88.474 33.1187 88.25 32.736C88.0353 32.344 87.746 32.05 87.382 31.854C87.0273 31.6487 86.6447 31.546 86.234 31.546C85.8327 31.546 85.45 31.6487 85.086 31.854C84.7313 32.0593 84.442 32.358 84.218 32.75C84.0033 33.142 83.896 33.604 83.896 34.136C83.896 34.668 84.0033 35.1347 84.218 35.536C84.442 35.928 84.7313 36.2267 85.086 36.432C85.45 36.6373 85.8327 36.74 86.234 36.74C86.6447 36.74 87.0273 36.6373 87.382 36.432C87.746 36.2173 88.0353 35.9093 88.25 35.508C88.474 35.1067 88.586 34.64 88.586 34.108ZM98.631 38.098C97.9777 38.098 97.3897 37.986 96.867 37.762C96.3443 37.5287 95.9337 37.202 95.635 36.782C95.3363 36.362 95.187 35.872 95.187 35.312H96.895C96.9323 35.732 97.0957 36.0773 97.385 36.348C97.6837 36.6187 98.099 36.754 98.631 36.754C99.1817 36.754 99.611 36.6233 99.919 36.362C100.227 36.0913 100.381 35.746 100.381 35.326C100.381 34.9993 100.283 34.7333 100.087 34.528C99.9003 34.3227 99.6623 34.164 99.373 34.052C99.093 33.94 98.701 33.8187 98.197 33.688C97.5623 33.52 97.0443 33.352 96.643 33.184C96.251 33.0067 95.915 32.736 95.635 32.372C95.355 32.008 95.215 31.5227 95.215 30.916C95.215 30.356 95.355 29.866 95.635 29.446C95.915 29.026 96.307 28.704 96.811 28.48C97.315 28.256 97.8983 28.144 98.561 28.144C99.5037 28.144 100.274 28.382 100.871 28.858C101.478 29.3247 101.814 29.9687 101.879 30.79H100.115C100.087 30.4353 99.919 30.132 99.611 29.88C99.303 29.628 98.897 29.502 98.393 29.502C97.9357 29.502 97.5623 29.6187 97.273 29.852C96.9837 30.0853 96.839 30.4213 96.839 30.86C96.839 31.1587 96.9277 31.406 97.105 31.602C97.2917 31.7887 97.525 31.938 97.805 32.05C98.085 32.162 98.4677 32.2833 98.953 32.414C99.597 32.5913 100.12 32.7687 100.521 32.946C100.932 33.1233 101.277 33.3987 101.557 33.772C101.846 34.136 101.991 34.626 101.991 35.242C101.991 35.7367 101.856 36.2033 101.585 36.642C101.324 37.0807 100.936 37.4353 100.423 37.706C99.919 37.9673 99.3217 38.098 98.631 38.098ZM105.736 31.588V35.858C105.736 36.1473 105.802 36.3573 105.932 36.488C106.072 36.6093 106.306 36.67 106.632 36.67H107.612V38H106.352C105.634 38 105.083 37.832 104.7 37.496C104.318 37.16 104.126 36.614 104.126 35.858V31.588H103.216V30.286H104.126V28.368H105.736V30.286H107.612V31.588H105.736ZM112.429 38.126C111.701 38.126 111.043 37.9627 110.455 37.636C109.867 37.3 109.405 36.8333 109.069 36.236C108.733 35.6293 108.565 34.9293 108.565 34.136C108.565 33.352 108.738 32.6567 109.083 32.05C109.429 31.4433 109.9 30.9767 110.497 30.65C111.095 30.3233 111.762 30.16 112.499 30.16C113.237 30.16 113.904 30.3233 114.501 30.65C115.099 30.9767 115.57 31.4433 115.915 32.05C116.261 32.6567 116.433 33.352 116.433 34.136C116.433 34.92 116.256 35.6153 115.901 36.222C115.547 36.8287 115.061 37.3 114.445 37.636C113.839 37.9627 113.167 38.126 112.429 38.126ZM112.429 36.74C112.84 36.74 113.223 36.642 113.577 36.446C113.941 36.25 114.235 35.956 114.459 35.564C114.683 35.172 114.795 34.696 114.795 34.136C114.795 33.576 114.688 33.1047 114.473 32.722C114.259 32.33 113.974 32.036 113.619 31.84C113.265 31.644 112.882 31.546 112.471 31.546C112.061 31.546 111.678 31.644 111.323 31.84C110.978 32.036 110.703 32.33 110.497 32.722C110.292 33.1047 110.189 33.576 110.189 34.136C110.189 34.9667 110.399 35.6107 110.819 36.068C111.249 36.516 111.785 36.74 112.429 36.74ZM119.607 31.406C119.84 31.014 120.148 30.7107 120.531 30.496C120.923 30.272 121.385 30.16 121.917 30.16V31.812H121.511C120.886 31.812 120.41 31.9707 120.083 32.288C119.766 32.6053 119.607 33.156 119.607 33.94V38H118.011V30.286H119.607V31.406ZM130.454 33.954C130.454 34.2433 130.435 34.5047 130.398 34.738H124.504C124.551 35.354 124.779 35.8487 125.19 36.222C125.601 36.5953 126.105 36.782 126.702 36.782C127.561 36.782 128.167 36.4227 128.522 35.704H130.244C130.011 36.4133 129.586 36.9967 128.97 37.454C128.363 37.902 127.607 38.126 126.702 38.126C125.965 38.126 125.302 37.9627 124.714 37.636C124.135 37.3 123.678 36.8333 123.342 36.236C123.015 35.6293 122.852 34.9293 122.852 34.136C122.852 33.3427 123.011 32.6473 123.328 32.05C123.655 31.4433 124.107 30.9767 124.686 30.65C125.274 30.3233 125.946 30.16 126.702 30.16C127.43 30.16 128.079 30.3187 128.648 30.636C129.217 30.9533 129.661 31.4013 129.978 31.98C130.295 32.5493 130.454 33.2073 130.454 33.954ZM128.788 33.45C128.779 32.862 128.569 32.3907 128.158 32.036C127.747 31.6813 127.239 31.504 126.632 31.504C126.081 31.504 125.61 31.6813 125.218 32.036C124.826 32.3813 124.593 32.8527 124.518 33.45H128.788Z" fill="white"/>
<path d="M29.3021 41.9999C24.2419 41.9707 20.0562 31.6411 20.0562 26.3804C20.0562 17.7872 26.5025 15.9059 28.9869 15.9059C30.1065 15.9059 31.3021 16.3456 32.3565 16.7347C33.0939 17.0061 33.8565 17.2862 34.2806 17.2862C34.5345 17.2862 35.1328 17.0479 35.661 16.8388C36.7874 16.3904 38.1891 15.833 39.8214 15.833C39.8243 15.833 39.8282 15.833 39.8311 15.833C41.0499 15.833 44.7454 16.1005 46.9672 19.437L47.4876 20.2191L46.7386 20.7843C45.6686 21.5916 43.7162 23.0644 43.7162 25.9817C43.7162 29.4369 45.9273 30.7656 46.9895 31.4047C47.4584 31.6868 47.9438 31.9777 47.9438 32.6139C47.9438 33.0292 44.6287 41.9483 39.8145 41.9483C38.6366 41.9483 37.8039 41.5942 37.0694 41.282C36.3263 40.9658 35.6852 40.6935 34.6259 40.6935C34.0889 40.6935 33.4099 40.9474 32.6911 41.2169C31.7087 41.5835 30.5968 41.9999 29.3352 41.9999H29.3021Z" fill="white"/>
<path d="M40.3314 8C40.4568 12.5207 37.2238 15.6569 33.9946 15.4602C33.4624 11.8526 37.2234 8 40.3314 8Z" fill="white"/>
</svg>
