<svg width="178" height="49" viewBox="0 0 178 49" fill="none" xmlns="http://www.w3.org/2000/svg">
<path d="M0 10C0 4.47715 4.47715 0 10 0H168C173.523 0 178 4.47715 178 10V39C178 44.5228 173.523 49 168 49H10C4.47715 49 0 44.5228 0 39V10Z" fill="black"/>
<path d="M78.26 13.06C78.028 12.572 77.692 12.196 77.252 11.932C76.812 11.66 76.3 11.524 75.716 11.524C75.132 11.524 74.604 11.66 74.132 11.932C73.668 12.196 73.3 12.58 73.028 13.084C72.764 13.58 72.632 14.156 72.632 14.812C72.632 15.468 72.764 16.044 73.028 16.54C73.3 17.036 73.668 17.42 74.132 17.692C74.604 17.956 75.132 18.088 75.716 18.088C76.532 18.088 77.204 17.844 77.732 17.356C78.26 16.868 78.568 16.208 78.656 15.376H75.32V14.488H79.82V15.328C79.756 16.016 79.54 16.648 79.172 17.224C78.804 17.792 78.32 18.244 77.72 18.58C77.12 18.908 76.452 19.072 75.716 19.072C74.94 19.072 74.232 18.892 73.592 18.532C72.952 18.164 72.444 17.656 72.068 17.008C71.7 16.36 71.516 15.628 71.516 14.812C71.516 13.996 71.7 13.264 72.068 12.616C72.444 11.96 72.952 11.452 73.592 11.092C74.232 10.724 74.94 10.54 75.716 10.54C76.604 10.54 77.388 10.76 78.068 11.2C78.756 11.64 79.256 12.26 79.568 13.06H78.26ZM82.3558 11.524V14.32H85.4038V15.22H82.3558V18.1H85.7638V19H81.2638V10.624H85.7638V11.524H82.3558ZM92.5642 10.636V11.524H90.2842V19H89.1922V11.524H86.9002V10.636H92.5642ZM98.1996 10.636V19H97.1076V10.636H98.1996ZM105.209 10.636V11.524H102.929V19H101.837V11.524H99.5447V10.636H105.209ZM113.544 19.084C112.768 19.084 112.06 18.904 111.42 18.544C110.78 18.176 110.272 17.668 109.896 17.02C109.528 16.364 109.344 15.628 109.344 14.812C109.344 13.996 109.528 13.264 109.896 12.616C110.272 11.96 110.78 11.452 111.42 11.092C112.06 10.724 112.768 10.54 113.544 10.54C114.328 10.54 115.04 10.724 115.68 11.092C116.32 11.452 116.824 11.956 117.192 12.604C117.56 13.252 117.744 13.988 117.744 14.812C117.744 15.636 117.56 16.372 117.192 17.02C116.824 17.668 116.32 18.176 115.68 18.544C115.04 18.904 114.328 19.084 113.544 19.084ZM113.544 18.136C114.128 18.136 114.652 18 115.116 17.728C115.588 17.456 115.956 17.068 116.22 16.564C116.492 16.06 116.628 15.476 116.628 14.812C116.628 14.14 116.492 13.556 116.22 13.06C115.956 12.556 115.592 12.168 115.128 11.896C114.664 11.624 114.136 11.488 113.544 11.488C112.952 11.488 112.424 11.624 111.96 11.896C111.496 12.168 111.128 12.556 110.856 13.06C110.592 13.556 110.46 14.14 110.46 14.812C110.46 15.476 110.592 16.06 110.856 16.564C111.128 17.068 111.496 17.456 111.96 17.728C112.432 18 112.96 18.136 113.544 18.136ZM125.762 19H124.67L120.278 12.34V19H119.186V10.624H120.278L124.67 17.272V10.624H125.762V19Z" fill="white"/>
<path d="M79.092 32.07C78.84 31.5847 78.49 31.2207 78.042 30.978C77.594 30.726 77.076 30.6 76.488 30.6C75.844 30.6 75.27 30.7447 74.766 31.034C74.262 31.3233 73.8653 31.734 73.576 32.266C73.296 32.798 73.156 33.414 73.156 34.114C73.156 34.814 73.296 35.4347 73.576 35.976C73.8653 36.508 74.262 36.9187 74.766 37.208C75.27 37.4973 75.844 37.642 76.488 37.642C77.356 37.642 78.0607 37.3993 78.602 36.914C79.1433 36.4287 79.4747 35.7707 79.596 34.94H75.942V33.666H81.304V34.912C81.2013 35.668 80.9307 36.3633 80.492 36.998C80.0627 37.6327 79.498 38.1413 78.798 38.524C78.1073 38.8973 77.3373 39.084 76.488 39.084C75.5733 39.084 74.738 38.874 73.982 38.454C73.226 38.0247 72.624 37.432 72.176 36.676C71.7373 35.92 71.518 35.066 71.518 34.114C71.518 33.162 71.7373 32.308 72.176 31.552C72.624 30.796 73.226 30.208 73.982 29.788C74.7473 29.3587 75.5827 29.144 76.488 29.144C77.524 29.144 78.4433 29.4007 79.246 29.914C80.058 30.418 80.646 31.1367 81.01 32.07H79.092ZM86.2241 39.126C85.4961 39.126 84.8381 38.9627 84.2501 38.636C83.6621 38.3 83.2001 37.8333 82.8641 37.236C82.5281 36.6293 82.3601 35.9293 82.3601 35.136C82.3601 34.352 82.5328 33.6567 82.8781 33.05C83.2235 32.4433 83.6948 31.9767 84.2921 31.65C84.8895 31.3233 85.5568 31.16 86.2941 31.16C87.0315 31.16 87.6988 31.3233 88.2961 31.65C88.8935 31.9767 89.3648 32.4433 89.7101 33.05C90.0555 33.6567 90.2281 34.352 90.2281 35.136C90.2281 35.92 90.0508 36.6153 89.6961 37.222C89.3415 37.8287 88.8561 38.3 88.2401 38.636C87.6335 38.9627 86.9615 39.126 86.2241 39.126ZM86.2241 37.74C86.6348 37.74 87.0175 37.642 87.3721 37.446C87.7361 37.25 88.0301 36.956 88.2541 36.564C88.4781 36.172 88.5901 35.696 88.5901 35.136C88.5901 34.576 88.4828 34.1047 88.2681 33.722C88.0535 33.33 87.7688 33.036 87.4141 32.84C87.0595 32.644 86.6768 32.546 86.2661 32.546C85.8555 32.546 85.4728 32.644 85.1181 32.84C84.7728 33.036 84.4975 33.33 84.2921 33.722C84.0868 34.1047 83.9841 34.576 83.9841 35.136C83.9841 35.9667 84.1941 36.6107 84.6141 37.068C85.0435 37.516 85.5801 37.74 86.2241 37.74ZM95.1519 39.126C94.4239 39.126 93.7659 38.9627 93.1779 38.636C92.5899 38.3 92.1279 37.8333 91.7919 37.236C91.4559 36.6293 91.2879 35.9293 91.2879 35.136C91.2879 34.352 91.4605 33.6567 91.8059 33.05C92.1512 32.4433 92.6225 31.9767 93.2199 31.65C93.8172 31.3233 94.4845 31.16 95.2219 31.16C95.9592 31.16 96.6265 31.3233 97.2239 31.65C97.8212 31.9767 98.2925 32.4433 98.6379 33.05C98.9832 33.6567 99.1559 34.352 99.1559 35.136C99.1559 35.92 98.9785 36.6153 98.6239 37.222C98.2692 37.8287 97.7839 38.3 97.1679 38.636C96.5612 38.9627 95.8892 39.126 95.1519 39.126ZM95.1519 37.74C95.5625 37.74 95.9452 37.642 96.2999 37.446C96.6639 37.25 96.9579 36.956 97.1819 36.564C97.4059 36.172 97.5179 35.696 97.5179 35.136C97.5179 34.576 97.4105 34.1047 97.1959 33.722C96.9812 33.33 96.6965 33.036 96.3419 32.84C95.9872 32.644 95.6045 32.546 95.1939 32.546C94.7832 32.546 94.4005 32.644 94.0459 32.84C93.7005 33.036 93.4252 33.33 93.2199 33.722C93.0145 34.1047 92.9119 34.576 92.9119 35.136C92.9119 35.9667 93.1219 36.6107 93.5419 37.068C93.9712 37.516 94.5079 37.74 95.1519 37.74ZM103.842 31.16C104.439 31.16 104.966 31.2813 105.424 31.524C105.89 31.7573 106.254 32.0513 106.516 32.406V31.286H108.126V39.126C108.126 39.8353 107.976 40.4653 107.678 41.016C107.379 41.576 106.945 42.0147 106.376 42.332C105.816 42.6493 105.144 42.808 104.36 42.808C103.314 42.808 102.446 42.5607 101.756 42.066C101.065 41.5807 100.673 40.918 100.58 40.078H102.162C102.283 40.4793 102.54 40.8013 102.932 41.044C103.333 41.296 103.809 41.422 104.36 41.422C105.004 41.422 105.522 41.226 105.914 40.834C106.315 40.442 106.516 39.8727 106.516 39.126V37.838C106.245 38.202 105.876 38.51 105.41 38.762C104.952 39.0047 104.43 39.126 103.842 39.126C103.17 39.126 102.554 38.958 101.994 38.622C101.443 38.2767 101.004 37.8007 100.678 37.194C100.36 36.578 100.202 35.8827 100.202 35.108C100.202 34.3333 100.36 33.6473 100.678 33.05C101.004 32.4527 101.443 31.9907 101.994 31.664C102.554 31.328 103.17 31.16 103.842 31.16ZM106.516 35.136C106.516 34.604 106.404 34.142 106.18 33.75C105.965 33.358 105.68 33.0593 105.326 32.854C104.971 32.6487 104.588 32.546 104.178 32.546C103.767 32.546 103.384 32.6487 103.03 32.854C102.675 33.05 102.386 33.344 102.162 33.736C101.947 34.1187 101.84 34.576 101.84 35.108C101.84 35.64 101.947 36.1067 102.162 36.508C102.386 36.9093 102.675 37.2173 103.03 37.432C103.394 37.6373 103.776 37.74 104.178 37.74C104.588 37.74 104.971 37.6373 105.326 37.432C105.68 37.2267 105.965 36.928 106.18 36.536C106.404 36.1347 106.516 35.668 106.516 35.136ZM111.818 28.64V39H110.222V28.64H111.818ZM120.983 34.954C120.983 35.2433 120.965 35.5047 120.927 35.738H115.033C115.08 36.354 115.309 36.8487 115.719 37.222C116.13 37.5953 116.634 37.782 117.231 37.782C118.09 37.782 118.697 37.4227 119.051 36.704H120.773C120.54 37.4133 120.115 37.9967 119.499 38.454C118.893 38.902 118.137 39.126 117.231 39.126C116.494 39.126 115.831 38.9627 115.243 38.636C114.665 38.3 114.207 37.8333 113.871 37.236C113.545 36.6293 113.381 35.9293 113.381 35.136C113.381 34.3427 113.54 33.6473 113.857 33.05C114.184 32.4433 114.637 31.9767 115.215 31.65C115.803 31.3233 116.475 31.16 117.231 31.16C117.959 31.16 118.608 31.3187 119.177 31.636C119.747 31.9533 120.19 32.4013 120.507 32.98C120.825 33.5493 120.983 34.2073 120.983 34.954ZM119.317 34.45C119.308 33.862 119.098 33.3907 118.687 33.036C118.277 32.6813 117.768 32.504 117.161 32.504C116.611 32.504 116.139 32.6813 115.747 33.036C115.355 33.3813 115.122 33.8527 115.047 34.45H119.317ZM132.995 32.168C132.995 32.6627 132.878 33.1293 132.645 33.568C132.411 34.0067 132.038 34.366 131.525 34.646C131.011 34.9167 130.353 35.052 129.551 35.052H127.787V39H126.191V29.27H129.551C130.297 29.27 130.927 29.4007 131.441 29.662C131.963 29.914 132.351 30.2593 132.603 30.698C132.864 31.1367 132.995 31.6267 132.995 32.168ZM129.551 33.75C130.157 33.75 130.61 33.6147 130.909 33.344C131.207 33.064 131.357 32.672 131.357 32.168C131.357 31.104 130.755 30.572 129.551 30.572H127.787V33.75H129.551ZM136.113 28.64V39H134.517V28.64H136.113ZM137.676 35.108C137.676 34.3333 137.835 33.6473 138.152 33.05C138.479 32.4527 138.918 31.9907 139.468 31.664C140.028 31.328 140.644 31.16 141.316 31.16C141.923 31.16 142.45 31.2813 142.898 31.524C143.356 31.7573 143.72 32.0513 143.99 32.406V31.286H145.6V39H143.99V37.852C143.72 38.216 143.351 38.5193 142.884 38.762C142.418 39.0047 141.886 39.126 141.288 39.126C140.626 39.126 140.019 38.958 139.468 38.622C138.918 38.2767 138.479 37.8007 138.152 37.194C137.835 36.578 137.676 35.8827 137.676 35.108ZM143.99 35.136C143.99 34.604 143.878 34.142 143.654 33.75C143.44 33.358 143.155 33.0593 142.8 32.854C142.446 32.6487 142.063 32.546 141.652 32.546C141.242 32.546 140.859 32.6487 140.504 32.854C140.15 33.05 139.86 33.344 139.636 33.736C139.422 34.1187 139.314 34.576 139.314 35.108C139.314 35.64 139.422 36.1067 139.636 36.508C139.86 36.9093 140.15 37.2173 140.504 37.432C140.868 37.6373 141.251 37.74 141.652 37.74C142.063 37.74 142.446 37.6373 142.8 37.432C143.155 37.2267 143.44 36.928 143.654 36.536C143.878 36.1347 143.99 35.668 143.99 35.136ZM154.64 31.286L149.908 42.626H148.256L149.824 38.874L146.786 31.286H148.564L150.734 37.166L152.988 31.286H154.64Z" fill="white"/>
<path d="M26.5147 8.4333C25.6388 7.90603 24.5948 7.85888 23.6844 8.29783L38.9494 23.5953L43.9405 18.5809L26.5147 8.4333ZM22.2819 9.71363C22.0893 10.1214 21.9857 10.5749 21.9857 11.0418V39.0243C21.9857 39.4931 22.09 39.9401 22.2845 40.3392L37.5435 25.0078L22.2819 9.71363ZM38.9514 26.4183L23.711 41.731C24.1155 41.9183 24.5458 42 24.9754 42C25.506 42 26.0353 41.8732 26.5147 41.585L43.9439 31.422L38.9514 26.4183ZM50.5773 22.4458C50.5713 22.4418 50.5647 22.4379 50.5587 22.4345L45.7203 19.6169L40.3566 25.0058L45.7236 30.3841C45.7236 30.3841 50.5713 27.5578 50.5773 27.5545C51.4771 27.008 52.0143 26.053 52.0143 24.9998C52.0143 23.9466 51.4771 22.9917 50.5773 22.4458Z" fill="white"/>
</svg>
